PathFileType	4	(X/Y/Z)	/home/nbianco/projects/addbio/data/HamnerRunning2013/Processed/subject03//results/MarkerData/run200.trc
DataRate	CameraRate	NumFrames	NumMarkers	Units	OrigDataRate	OrigDataStartFrame	OrigNumFrames
100	100	9	45	m	100	164	219
Frame#	Time	C7			CLAV			LACR			LASI			LCAL			LFAradius			LFAsuperior			LFAulna			LLEL			LMEL			LMT5			LPSH			LPSI			LTB1			LTB2			LTB3			LTH1			LTH2			LTH3			LTOE			LUA1			LUA2			LUA3			RACR			RASI			RCAL			RFAradius			RFAsuperior			RFAulna			RLEL			RLMAL			RMEL			RMMAL			RMT5			RPSI			RTB1			RTB2			RTB3			RTH1			RTH2			RTH3			RTOE			RUA1			RUA2			RUA3		
		X1	Y1	Z1	X2	Y2	Z2	X3	Y3	Z3	X4	Y4	Z4	X5	Y5	Z5	X6	Y6	Z6	X7	Y7	Z7	X8	Y8	Z8	X9	Y9	Z9	X10	Y10	Z10	X11	Y11	Z11	X12	Y12	Z12	X13	Y13	Z13	X14	Y14	Z14	X15	Y15	Z15	X16	Y16	Z16	X17	Y17	Z17	X18	Y18	Z18	X19	Y19	Z19	X20	Y20	Z20	X21	Y21	Z21	X22	Y22	Z22	X23	Y23	Z23	X24	Y24	Z24	X25	Y25	Z25	X26	Y26	Z26	X27	Y27	Z27	X28	Y28	Z28	X29	Y29	Z29	X30	Y30	Z30	X31	Y31	Z31	X32	Y32	Z32	X33	Y33	Z33	X34	Y34	Z34	X35	Y35	Z35	X36	Y36	Z36	X37	Y37	Z37	X38	Y38	Z38	X39	Y39	Z39	X40	Y40	Z40	X41	Y41	Z41	X42	Y42	Z42	X43	Y43	Z43	X44	Y44	Z44	X45	Y45	Z45

165	1.84	0.954052	1.55943	-0.473845	1.0717	1.46831	-0.456236	0.988409	1.53982	-0.636925	1.04462	1.0399	-0.571909	0.73227	0.255979	-0.548752	1.0788	1.23943	-0.648531	0.93495	1.16978	-0.727903	1.08605	1.1725	-0.666426	0.863189	1.21743	-0.772701	0.831849	1.20407	-0.689275	0.835983	0.132767	-0.648795	0.906877	1.49952	-0.644023	0.874325	1.07018	-0.500957	1.064	0.415702	-0.594806	0.929744	0.409502	-0.616731	0.912737	0.297855	-0.590919	0.989115	0.816408	-0.621289	1.09427	0.732286	-0.620862	1.07048	0.626012	-0.610626	0.894975	0.106327	-0.583291	0.905072	1.41315	-0.70444	0.842842	1.33499	-0.688599	0.858696	1.29285	-0.749221	1.00244	1.51933	-0.317916	1.0498	1.04921	-0.335739	0.772802	0.100114	-0.416463	1.17423	1.13617	-0.316873	1.00681	1.11995	-0.211241	1.16564	1.06912	-0.305828	0.957434	1.17695	-0.18034	0.844289	0.122888	-0.358222	0.913995	1.16415	-0.255887	0.863773	0.135123	-0.441744	0.926806	0.0575152	-0.322149	0.879488	1.07104	-0.415154	1.01614	0.368878	-0.389275	0.962625	0.328957	-0.340787	0.926844	0.207456	-0.383734	0.987262	0.78521	-0.294562	1.06599	0.723033	-0.32958	1.00726	0.615823	-0.32997	0.998123	0.0675151	-0.397673	0.98215	1.35921	-0.231742	0.908793	1.29717	-0.234611	0.932175	1.24183	-0.197523
166	1.85	0.952976	1.56374	-0.474432	1.07121	1.47374	-0.458002	0.983663	1.54459	-0.637193	1.04518	1.04419	-0.570665	0.7523	0.241716	-0.549289	1.06837	1.25406	-0.652086	0.923433	1.17955	-0.724438	1.07567	1.18653	-0.666048	0.850009	1.22477	-0.768593	0.820473	1.21278	-0.683037	0.864573	0.12472	-0.648188	0.902013	1.50447	-0.642338	0.873477	1.07551	-0.499278	1.07562	0.419635	-0.594749	0.942151	0.405664	-0.618255	0.93088	0.293742	-0.590605	0.991527	0.821818	-0.622035	1.0973	0.739272	-0.62151	1.07543	0.632908	-0.612615	0.924642	0.102698	-0.581782	0.897409	1.41964	-0.702382	0.834751	1.34322	-0.684453	0.847901	1.30047	-0.745212	1.00319	1.52573	-0.319182	1.05015	1.05227	-0.334833	0.753247	0.10213	-0.416353	1.17925	1.15692	-0.328071	1.01851	1.12971	-0.214422	1.17523	1.08945	-0.316611	0.96799	1.18336	-0.180544	0.825103	0.125435	-0.357406	0.92184	1.16998	-0.254471	0.845225	0.137705	-0.440781	0.906932	0.0579213	-0.321638	0.879498	1.07615	-0.413329	0.998709	0.370159	-0.3869	0.94466	0.330806	-0.339488	0.908427	0.209586	-0.382655	0.980988	0.788155	-0.293924	1.05721	0.723573	-0.329361	0.994991	0.618229	-0.32879	0.978354	0.0676729	-0.397532	0.987118	1.36609	-0.232021	0.915812	1.30268	-0.230988	0.941616	1.24742	-0.195992
167	1.86	0.952035	1.56838	-0.475057	1.07083	1.47948	-0.459831	0.979169	1.54971	-0.637351	1.0459	1.04877	-0.569727	0.773596	0.226631	-0.550182	1.05818	1.26924	-0.655206	0.912566	1.18964	-0.720235	1.06611	1.20136	-0.665654	0.837254	1.23233	-0.763727	0.81014	1.22177	-0.676193	0.894343	0.116786	-0.647796	0.897466	1.50977	-0.640569	0.873742	1.08128	-0.498317	1.08653	0.423648	-0.594673	0.954553	0.401275	-0.619867	0.9494	0.289372	-0.590459	0.993768	0.82764	-0.622901	1.09994	0.746309	-0.622206	1.07966	0.639843	-0.614407	0.955375	0.0993539	-0.580892	0.890124	1.42662	-0.700176	0.827326	1.35192	-0.679687	0.837348	1.30852	-0.740552	1.00405	1.5325	-0.320675	1.05069	1.05564	-0.334435	0.734409	0.106021	-0.415774	1.18243	1.17819	-0.338844	1.02942	1.1404	-0.217611	1.18305	1.11061	-0.327082	0.978166	1.19058	-0.180759	0.806376	0.128635	-0.356494	0.929417	1.17664	-0.253045	0.826888	0.140725	-0.439686	0.887314	0.0583776	-0.321374	0.880243	1.0818	-0.412245	0.981362	0.372486	-0.38442	0.926802	0.333541	-0.337996	0.890273	0.212548	-0.381287	0.974756	0.791658	-0.293314	1.04849	0.724874	-0.329431	0.982546	0.621571	-0.327766	0.958683	0.0679254	-0.397234	0.992097	1.37356	-0.232495	0.922843	1.30912	-0.227923	0.950898	1.25404	-0.194576
168	1.87	0.951214	1.57323	-0.475733	1.0706	1.4854	-0.461671	0.975108	1.55495	-0.637554	1.04672	1.05359	-0.569167	0.796203	0.210886	-0.551224	1.04834	1.28444	-0.658085	0.902409	1.19977	-0.715625	1.0573	1.21642	-0.665475	0.825008	1.23994	-0.758208	0.801293	1.23068	-0.669175	0.925112	0.109203	-0.647554	0.893404	1.51521	-0.638782	0.875149	1.08728	-0.498219	1.09658	0.427675	-0.594681	0.966827	0.396482	-0.621376	0.968202	0.284888	-0.59055	0.995463	0.833778	-0.623722	1.10226	0.753375	-0.622857	1.08315	0.646698	-0.615843	0.98697	0.0965043	-0.580456	0.883286	1.43378	-0.697729	0.820726	1.36062	-0.674228	0.827041	1.31676	-0.735148	1.00505	1.5395	-0.32232	1.05143	1.0593	-0.334686	0.716545	0.112013	-0.414806	1.18397	1.19949	-0.348952	1.0395	1.15171	-0.220786	1.18915	1.13215	-0.336895	0.987916	1.19843	-0.180965	0.788346	0.132596	-0.355498	0.936577	1.18381	-0.25152	0.808914	0.144334	-0.438582	0.867977	0.0588819	-0.321348	0.881693	1.08759	-0.412115	0.964447	0.37586	-0.381925	0.90926	0.337243	-0.336223	0.872509	0.216444	-0.379677	0.968401	0.795813	-0.292896	1.03991	0.726936	-0.329495	0.970138	0.625807	-0.326718	0.938999	0.0682444	-0.396672	0.997154	1.38138	-0.233252	0.929641	1.31621	-0.225674	0.959709	1.26145	-0.193407
169	1.88	0.950484	1.5782	-0.476482	1.07051	1.49146	-0.463479	0.971518	1.5602	-0.637908	1.04761	1.05855	-0.568971	0.820186	0.194681	-0.552145	1.03886	1.29915	-0.660813	0.892995	1.20982	-0.710812	1.04917	1.23121	-0.665606	0.813409	1.2475	-0.752102	0.793625	1.23938	-0.66192	0.956652	0.102208	-0.647394	0.889869	1.52064	-0.63707	0.877507	1.09335	-0.498928	1.10563	0.431627	-0.594924	0.978802	0.391384	-0.622737	0.987158	0.280407	-0.590887	0.996409	0.840073	-0.624476	1.1042	0.760391	-0.623414	1.08575	0.653382	-0.617026	1.01914	0.0943503	-0.58035	0.876968	1.44089	-0.694942	0.815009	1.36905	-0.668159	0.817222	1.32502	-0.729015	1.00617	1.5466	-0.324053	1.05233	1.06322	-0.335506	0.699759	0.119699	-0.413655	1.18416	1.22039	-0.358139	1.04873	1.16333	-0.223878	1.19364	1.1536	-0.34591	0.997144	1.20671	-0.181158	0.771195	0.137281	-0.354398	0.943252	1.19118	-0.249869	0.791694	0.148763	-0.437476	0.848906	0.0594258	-0.321484	0.883437	1.09335	-0.412632	0.948208	0.380154	-0.379391	0.892314	0.341891	-0.334093	0.855347	0.221242	-0.377895	0.961905	0.800609	-0.292644	1.03155	0.729676	-0.329276	0.958147	0.630806	-0.32549	0.919151	0.0685011	-0.39587	1.00223	1.38936	-0.234249	0.936027	1.32362	-0.224242	0.967749	1.26934	-0.192509
170	1.89	0.949851	1.58324	-0.477323	1.07055	1.49763	-0.46523	0.96839	1.56536	-0.638429	1.04853	1.06358	-0.56908	0.845557	0.178346	-0.552756	1.0298	1.31304	-0.663379	0.884344	1.21967	-0.705933	1.0417	1.24538	-0.666072	0.802603	1.25492	-0.74545	0.786562	1.24777	-0.654158	0.988701	0.0960386	-0.647282	0.886823	1.52602	-0.635535	0.880424	1.09944	-0.500178	1.11359	0.435394	-0.595557	0.990321	0.386021	-0.624034	1.00614	0.276021	-0.591431	0.99663	0.846344	-0.625231	1.1056	0.767194	-0.623897	1.08718	0.659714	-0.61811	1.0516	0.093135	-0.580556	0.871267	1.44781	-0.691839	0.810144	1.37712	-0.661687	0.808188	1.33312	-0.722336	1.0073	1.55368	-0.325839	1.05328	1.06735	-0.336647	0.68404	0.128436	-0.412497	1.1833	1.24051	-0.366223	1.05708	1.17493	-0.22677	1.19662	1.17449	-0.354209	1.00573	1.21523	-0.181328	0.754988	0.142515	-0.353196	0.949457	1.19852	-0.248159	0.775617	0.154059	-0.436275	0.83008	0.0600001	-0.321636	0.8851	1.09918	-0.413321	0.932761	0.385182	-0.376762	0.876196	0.347331	-0.33164	0.839055	0.226734	-0.375935	0.955607	0.80589	-0.292388	1.02355	0.732955	-0.32864	0.946932	0.636366	-0.324032	0.899046	0.0684834	-0.395026	1.00712	1.3974	-0.235371	0.941874	1.33108	-0.223483	0.974814	1.27744	-0.191822
171	1.9	0.949374	1.58827	-0.478268	1.07067	1.50383	-0.466918	0.96576	1.57033	-0.639089	1.04948	1.06866	-0.569438	0.872181	0.162363	-0.553063	1.02128	1.32598	-0.665687	0.876503	1.22917	-0.701148	1.03493	1.25868	-0.66685	0.792722	1.2621	-0.738373	0.779954	1.25572	-0.645924	1.02101	0.0909057	-0.647204	0.884229	1.53135	-0.634226	0.88323	1.1055	-0.5015	1.12038	0.438857	-0.596658	1.00132	0.380418	-0.625364	1.02506	0.271838	-0.592139	0.996316	0.852414	-0.626015	1.10628	0.773545	-0.624365	1.08711	0.665395	-0.619068	1.08404	0.0930692	-0.581001	0.866295	1.45444	-0.688606	0.806053	1.38479	-0.655104	0.800145	1.34093	-0.715421	1.00837	1.56064	-0.327658	1.05419	1.07167	-0.337882	0.669336	0.137735	-0.411424	1.18159	1.25951	-0.373181	1.06451	1.18626	-0.229375	1.19828	1.19433	-0.361918	1.01356	1.2238	-0.181451	0.739666	0.148112	-0.351915	0.955167	1.20573	-0.246489	0.760809	0.159965	-0.434877	0.811504	0.0606512	-0.321599	0.886517	1.10509	-0.413855	0.918151	0.390734	-0.374028	0.860979	0.353331	-0.329015	0.823811	0.232645	-0.373754	0.950031	0.811428	-0.291987	1.0161	0.736626	-0.327608	0.936677	0.642264	-0.322386	0.878736	0.0680275	-0.394337	1.01153	1.4054	-0.236495	0.947055	1.33844	-0.22322	0.980853	1.28559	-0.191277
172	1.91	0.949115	1.59323	-0.479323	1.07084	1.50989	-0.468548	0.963694	1.57499	-0.639844	1.05048	1.07376	-0.570003	0.899745	0.147276	-0.553236	1.01343	1.33786	-0.667623	0.869532	1.23814	-0.696634	1.02887	1.27094	-0.667864	0.78388	1.26891	-0.731169	0.774204	1.26307	-0.637702	1.05336	0.0869605	-0.647088	0.882096	1.53657	-0.633121	0.885322	1.11134	-0.502512	1.126	0.441931	-0.598175	1.01183	0.374623	-0.626723	1.0438	0.268013	-0.592958	0.99573	0.858096	-0.626778	1.10606	0.779137	-0.624885	1.08538	0.670156	-0.619728	1.11614	0.0942207	-0.581402	0.862128	1.46066	-0.6855	0.802672	1.39202	-0.64874	0.793176	1.34831	-0.708616	1.0093	1.56739	-0.329487	1.05503	1.07611	-0.339106	0.655614	0.147371	-0.410463	1.17915	1.27703	-0.37913	1.07093	1.19716	-0.231695	1.19888	1.21271	-0.369034	1.02055	1.23227	-0.181501	0.725111	0.154001	-0.350587	0.960276	1.21276	-0.244931	0.747129	0.166094	-0.433239	0.793178	0.0614686	-0.32129	0.887688	1.11086	-0.414204	0.904434	0.396563	-0.371212	0.846616	0.359682	-0.326403	0.809599	0.238775	-0.371387	0.945488	0.817009	-0.29141	1.00936	0.740559	-0.326315	0.927404	0.6483	-0.320659	0.858414	0.0671714	-0.393807	1.01514	1.41327	-0.237527	0.951462	1.34563	-0.223296	0.985939	1.29367	-0.19084
173	1.92	0.949074	1.598	-0.480483	1.07101	1.51561	-0.470124	0.962212	1.57925	-0.640648	1.05152	1.07884	-0.570731	0.927763	0.133562	-0.553409	1.00639	1.3486	-0.669127	0.863494	1.24635	-0.692495	1.02353	1.28205	-0.669011	0.776165	1.27524	-0.724228	0.769788	1.26973	-0.63008	1.08549	0.0843269	-0.646701	0.880442	1.54163	-0.632205	0.886656	1.11667	-0.503216	1.13056	0.44457	-0.599913	1.02197	0.368729	-0.628	1.06222	0.264746	-0.593772	0.995086	0.863193	-0.627442	1.1048	0.783645	-0.625511	1.08216	0.673912	-0.620042	1.14754	0.0965643	-0.581317	0.858755	1.46637	-0.682719	0.799978	1.39876	-0.642878	0.787299	1.35514	-0.702196	1.01007	1.57385	-0.331305	1.05584	1.08062	-0.340276	0.642866	0.157284	-0.409608	1.17618	1.29275	-0.384207	1.07625	1.20752	-0.233785	1.19863	1.22926	-0.375422	1.02661	1.24048	-0.181488	0.71124	0.160219	-0.349266	0.964657	1.21959	-0.243532	0.734372	0.172186	-0.431423	0.775057	0.0625257	-0.320913	0.888689	1.11609	-0.414556	0.891731	0.402426	-0.36837	0.833085	0.366242	-0.323953	0.796298	0.245028	-0.368987	0.941836	0.822433	-0.290706	1.0034	0.744627	-0.324964	0.919096	0.654304	-0.318996	0.838338	0.066184	-0.393292	1.01783	1.42093	-0.238408	0.955084	1.35258	-0.223553	0.990199	1.30153	-0.190476
